
<svg width="101px" height="46px" viewBox="0 0 101 46" version="1.1" xmlns="http://www.w3.org/2000/svg" xmlns:xlink="http://www.w3.org/1999/xlink">
    <g id="Page-1" stroke="none" stroke-width="1" fill="none" fill-rule="evenodd">
        <g id="Group" fill-rule="nonzero">
            <path fill="#000000" d="M88.245,0 C91.6183502,0 94.4324887,1.08165585 96.6875,3.245 C98.9425113,5.40834415 100.07,8.04831775 100.07,11.165 C100.07,15.8950236 98.6858472,19.6808191 95.9175,22.5225 C93.1491528,25.3641809 89.8033529,26.785 85.88,26.785 C81.956647,26.785 78.8491781,25.6666778 76.5575,23.43 C75.8908738,22.7793728 75.3212064,22.0837608 74.8484971,21.3431621 C74.4599039,21.7094485 74.0522097,22.0752488 73.6266667,22.44 C72.086659,23.7233397 70.2625105,24.7683293 68.1541667,25.575 C66.0458228,26.3816707 63.8733445,26.785 61.6366667,26.785 C57.9699817,26.785 55.073344,25.6666778 52.9466667,23.43 C51.2081878,21.5793612 50.1344463,19.3320575 49.7254268,16.6880472 C49.0504871,18.944643 47.9167234,20.8894671 46.3258333,22.5225 C43.5574862,25.3641809 40.2116863,26.785 36.2883333,26.785 C32.3649804,26.785 29.2575115,25.6666778 26.9658333,23.43 C26.2438423,22.7253368 25.6355843,21.9679064 25.1410582,21.1577062 C24.9432195,21.345382 24.7389958,21.5345229 24.53,21.725 C23.0266591,23.1183403 21.1566778,24.2916619 18.92,25.245 C16.4999879,26.2716718 14.0800121,26.785 11.66,26.785 C8.39665035,26.785 5.63751127,25.6666778 3.3825,23.43 C1.12748872,21.1933221 -7.10542736e-15,18.2783513 -7.10542736e-15,14.685 C-7.10542736e-15,10.3216448 1.466652,6.7833469 4.4,4.07 C7.333348,1.3566531 10.6149818,0 14.245,0 C17.0683474,0 19.3049917,0.5866608 20.955,1.76 C22.6050082,2.9333392 23.43,4.4733238 23.43,6.38 C23.43,7.6266729 22.9900044,8.70832875 22.11,9.625 C20.4966586,11.2383414 18.5350115,12.045 16.225,12.045 C16.7750027,10.2116575 17.05,8.80000495 17.05,7.81 C17.05,5.42665475 15.9866773,4.235 13.86,4.235 C12.2833254,4.235 10.8716729,5.13332435 9.625,6.93 C8.3049934,8.87334305 7.645,11.1466536 7.645,13.75 C7.645,16.3533463 8.22249422,18.3608263 9.3775,19.7725 C10.5325058,21.1841737 12.1183232,21.89 14.135,21.89 C16.5550121,21.89 19.1124865,20.9000099 21.8075,18.92 C22.4766017,18.4284151 23.1134943,17.9074506 23.7181788,17.3571054 C23.5912273,16.6421079 23.5283333,15.8981467 23.5283333,15.125 C23.5283333,10.5049769 24.9399859,6.8383469 27.7633333,4.125 C30.6233476,1.37498625 34.2533113,0 38.6533333,0 C42.0266835,0 44.8408221,1.08165585 47.0958333,3.245 C48.9235472,4.99841654 50.0105579,7.06494518 50.3568834,9.44462808 C51.054983,7.55732351 52.2029034,5.82096479 53.7991667,4.235 C56.6408475,1.41165255 60.0416469,0 64.0016667,0 C66.8250141,0 69.1166579,0.614160525 70.8766667,1.8425 C72.6366755,3.07083947 73.5349998,4.72998955 73.5716667,6.82 C73.5716667,9.64334745 72.4441779,11.9349912 70.1891667,13.695 C67.9341554,15.4550088 64.8450196,16.6833298 60.9216667,17.38 L60.1516667,14.135 C62.4250114,13.6583309 64.1208277,12.7416734 65.2391667,11.385 C66.3575056,10.0283265 66.9166667,8.71750632 66.9166667,7.4525 C66.9166667,6.18749367 66.5775034,5.32583562 65.8991667,4.8675 C65.2208299,4.40916437 64.4783374,4.18 63.6716667,4.18 C61.9483247,4.18 60.4358398,5.14249037 59.1341667,7.0675 C57.8324935,8.99250962 57.1816667,11.2841534 57.1816667,13.9425 C57.1816667,16.6008466 57.8141603,18.5808268 59.0791667,19.8825 C60.344173,21.1841732 61.9116573,21.835 63.7816667,21.835 C66.5316804,21.835 69.171654,20.8816762 71.7016667,18.975 C72.2767699,18.5415889 72.8272416,18.0778659 73.3530825,17.5838303 C73.1969999,16.8002003 73.12,15.9804658 73.12,15.125 C73.12,10.5049769 74.5316525,6.8383469 77.355,4.125 C80.2150143,1.37498625 83.844978,0 88.245,0 Z M37.5533333,4.455 C35.8299914,4.455 34.3816725,5.4449901 33.2083333,7.425 C32.0349941,9.4050099 31.3933339,11.8983183 31.2833333,14.905 C31.2833333,17.0316773 31.7141624,18.7916597 32.5758333,20.185 C33.4375043,21.5783403 34.7483245,22.275 36.5083333,22.275 C38.2683421,22.275 39.7441607,21.303343 40.9358333,19.36 C42.127506,17.416657 42.7233333,15.1983458 42.7233333,12.705 C42.7233333,10.2116542 42.3016709,8.231674 41.4583333,6.765 C40.6149958,5.2249923 39.3133421,4.455 37.5533333,4.455 Z M87.145,4.455 C85.421658,4.455 83.9733392,5.4449901 82.8,7.425 C81.6266608,9.4050099 80.9850005,11.8983183 80.875,14.905 C80.875,17.0316773 81.305829,18.7916597 82.1675,20.185 C83.029171,21.5783403 84.3399912,22.275 86.1,22.275 C87.8600088,22.275 89.3358274,21.303343 90.5275,19.36 C91.7191726,17.416657 92.315,15.1983458 92.315,12.705 C92.315,10.2116542 91.8933375,8.231674 91.05,6.765 C90.2066624,5.2249923 88.9050088,4.455 87.145,4.455 Z" id="Combined-Shape"></path>
            <path fill="#FC0201" d="M16.622,44.218 L16.622,45 L8.581,45 L8.581,32.93 L16.469,32.93 L16.469,33.712 L9.448,33.712 L9.448,38.455 L15.585,38.455 L15.585,39.203 L9.448,39.203 L9.448,44.218 L16.622,44.218 Z M22.368,32.93 L26.958,43.912 L31.548,32.93 L32.466,32.93 L27.366,45 L26.567,45 L21.45,32.93 L22.368,32.93 Z M46.151,44.218 L46.151,45 L38.11,45 L38.11,32.93 L45.998,32.93 L45.998,33.712 L38.977,33.712 L38.977,38.455 L45.114,38.455 L45.114,39.203 L38.977,39.203 L38.977,44.218 L46.151,44.218 Z M53.75,34.562 L53.75,45 L52.883,45 L52.883,32.93 L53.546,32.93 L62.012,43.555 L62.012,32.93 L62.879,32.93 L62.879,45 L62.08,45 L53.75,34.562 Z M78.349,33.712 L73.929,33.712 L73.929,45 L73.062,45 L73.062,33.712 L68.642,33.712 L68.642,32.93 L78.349,32.93 L78.349,33.712 Z M91.133,34.936 C90.3509961,34.063329 89.2460071,33.627 87.818,33.627 C86.6393274,33.627 85.780836,33.8508311 85.2425,34.2985 C84.704164,34.7461689 84.435,35.3496629 84.435,36.109 C84.435,36.4943353 84.5029993,36.8144987 84.639,37.0695 C84.7750007,37.3245013 84.9874986,37.5426658 85.2765,37.724 C85.5655014,37.9053342 85.9309978,38.0583327 86.373,38.183 C86.8150022,38.3076673 87.3476635,38.4379993 87.971,38.574 C88.6170032,38.7100007 89.2034974,38.8601658 89.7305,39.0245 C90.2575026,39.1888342 90.7051648,39.3956654 91.0735,39.645 C91.4418352,39.8943346 91.7251657,40.2003315 91.9235,40.563 C92.1218343,40.9256685 92.221,41.3733307 92.221,41.906 C92.221,42.4386693 92.1161677,42.9033314 91.9065,43.3 C91.6968323,43.6966686 91.4021686,44.0281653 91.0225,44.2945 C90.6428314,44.5608347 90.1895026,44.7619993 89.6625,44.898 C89.1354974,45.0340007 88.5490032,45.102 87.903,45.102 C86.0216573,45.102 84.4293399,44.5013393 83.126,43.3 L83.585,42.603 C84.0950026,43.1356693 84.7183297,43.5578318 85.455,43.8695 C86.1916704,44.1811682 87.0189954,44.337 87.937,44.337 C88.9910053,44.337 89.815497,44.1443353 90.4105,43.759 C91.005503,43.3736647 91.303,42.7900039 91.303,42.008 C91.303,41.6113314 91.2236675,41.2741681 91.065,40.9965 C90.9063325,40.7188319 90.6711682,40.478001 90.3595,40.274 C90.0478318,40.069999 89.6540024,39.8943341 89.178,39.747 C88.7019976,39.5996659 88.1466698,39.4580007 87.512,39.322 C86.8659968,39.1859993 86.2965025,39.0415008 85.8035,38.8885 C85.3104975,38.7354992 84.896835,38.5428345 84.5625,38.3105 C84.228165,38.0781655 83.9760008,37.7976683 83.806,37.469 C83.6359992,37.1403317 83.551,36.7266692 83.551,36.228 C83.551,35.6839973 83.6558323,35.2023354 83.8655,34.783 C84.0751677,34.3636646 84.3669981,34.0095014 84.741,33.7205 C85.1150019,33.4314986 85.5626641,33.2133341 86.084,33.066 C86.6053359,32.9186659 87.1833302,32.845 87.818,32.845 C88.6000039,32.845 89.2969969,32.9611655 89.909,33.1935 C90.5210031,33.4258345 91.0763308,33.7799976 91.575,34.256 L91.133,34.936 Z" id="EVENTS"></path>
        </g>
    </g>
</svg>
