<svg id="Layer_8" data-name="Layer 8" xmlns="http://www.w3.org/2000/svg" viewBox="0 0 513 262.66"><defs><style>.cls-1{fill:#1d1d1b;}.cls-2{fill:#fff;}.cls-3{fill:#ea5b1b;}</style></defs><path class="cls-1" d="M242.46,138.83H235.9v29h-21V86.25h26.59c20.73,0,32.9,6.79,32.9,25.41,0,12.06-5.26,27.17-32,27.17m-6.56-35.37V122.2H242c6.55,0,9.6-1.76,9.6-10.65,0-6.8-3.4-8.09-8.43-8.09Z"/><path class="cls-1" d="M341.27,141.29c0,7-.23,10.19-2,13.46-3.39,6.8-12.53,13.12-28.69,13.12-12.88,0-21.78-3.51-26.7-10.19-3-4.45-4-6.44-4-17.33l.13-54.1h21.08L301,138.12c0,7.5,2.34,12.54,9.72,12.54s9.6-4.22,9.6-12.18l.13-52.23h21Z"/><path class="cls-1" d="M387.89,167.87,379.34,145c-3.16-8.43-5-9.48-9.6-9.48v32.32h-21V86.25h28.1c24,0,31.74,9.72,31.74,23.3,0,14.06-7.38,21.2-17,22.84,2.81.82,6.21,4.57,8.19,8.78,2.7,5.5,9.61,20.61,12.3,26.7Zm-18.15-64.41v16.63h6c7.15,0,9.6-3.39,9.6-8.9,0-5.85-3.16-7.73-9.71-7.73Z"/><polygon class="cls-1" points="416.8 167.87 416.8 86.25 464.23 86.25 462.71 103.47 437.76 103.47 437.76 117.17 458.14 117.17 458.14 133.79 437.76 133.79 437.76 150.42 465.75 150.42 465.75 167.87 416.8 167.87"/><path class="cls-2" d="M35.71,127.76a83,83,0,1,1,83,83,83,83,0,0,1-83-83"/><path class="cls-3" d="M118.71,211.26a83.5,83.5,0,1,1,83.5-83.5,83.6,83.6,0,0,1-83.5,83.5Z"/><path class="cls-2" d="M103.76,78.87C87.43,118,86.83,147,93.31,179.79c9.46-.86,21.94-1.83,31.4-2.69-8.67-21-11.78-61.3,1.26-98.59C118.19,76.8,110.47,74.32,103.76,78.87Z"/><path class="cls-2" d="M127.9,109.4c.32-10.69-2.61-37.27-24.14-30.53,27.82-13.88,56.31,7.32,54.63,30.06-2,27.31-31.27,47.52-59.55,29.43C113.94,147.1,127.3,129,127.9,109.4Z"/><path class="cls-1" d="M242.46,138.83H235.9v29h-21V86.25h26.59c20.73,0,32.9,6.79,32.9,25.41,0,12.06-5.26,27.17-32,27.17m-6.56-35.37V122.2H242c6.55,0,9.6-1.76,9.6-10.65,0-6.8-3.4-8.09-8.43-8.09Z"/><path class="cls-1" d="M216.81,195.88V176.72h5v19.16Z"/><path class="cls-1" d="M237.64,180.79h-4.45v15.09h-5V180.79h-4.45v-4.07h14.46Z"/><path class="cls-1" d="M255.11,195.88l-3.39-6.65a30.55,30.55,0,0,1-1.48-3.6,37.15,37.15,0,0,1,.27,4.86v5.39h-4.67V176.72h4.73l3.49,6.57a28.66,28.66,0,0,1,1.6,3.66,42.37,42.37,0,0,1-.17-4.29v-5.94h4.68v19.16Z"/><path class="cls-1" d="M271.45,196.21c-5.55,0-8.63-3.68-8.63-9.43,0-6.82,3.74-10.39,8.8-10.39,6.51,0,8.41,5,8.41,9.18C280,191.07,278.3,196.21,271.45,196.21Zm0-16c-2.23,0-3.16,2.33-3.16,6,0,4.89,1.18,6.1,3.21,6.1s3-1.23,3-6.15S273.6,180.24,271.48,180.24Z"/><path class="cls-1" d="M291.92,195.88l-2-5.36c-.74-2-1.18-2.23-2.25-2.23v7.59h-4.93V176.72h6.6c5.64,0,7.45,2.28,7.45,5.47s-1.73,5-4,5.36a3.94,3.94,0,0,1,1.92,2.06c.63,1.29,2.26,4.84,2.89,6.27ZM289,180.76h-1.37v3.9h1.4c1.67,0,2.25-.79,2.25-2.09S290.57,180.76,289,180.76Z"/><path class="cls-1" d="M312.26,180.79H307.8v15.09h-5V180.79h-4.45v-4.07h14.46Z"/><path class="cls-1" d="M323.23,195.88v-8.06H319.3v8.06h-4.92V176.72h4.92v7h3.93v-7h4.93v19.16Z"/></svg>